<svg width="16" height="16" viewBox="0 0 16 16" fill="none" xmlns="http://www.w3.org/2000/svg">
<g clip-path="url(#clip0)">
<path d="M7.03853 13.9975H1.94853V1.2725H10.856V3.8175C10.856 4.16871 11.1411 4.45375 11.4923 4.45375C11.8435 4.45375 12.1285 4.16871 12.1285 3.8175V0.63625C12.1285 0.285039 11.8435 0 11.4923 0H1.31228C0.961064 0 0.676025 0.285039 0.676025 0.63625V14.6338C0.676025 14.985 0.961064 15.27 1.31228 15.27H7.03853C7.38974 15.27 7.67478 14.985 7.67478 14.6338C7.67478 14.2825 7.38974 13.9975 7.03853 13.9975Z" fill="white"/>
<path d="M6.08408 2.54504H3.53908C3.18787 2.54504 2.90283 2.83008 2.90283 3.18129C2.90283 3.53251 3.18787 3.81754 3.53908 3.81754H6.08408C6.43529 3.81754 6.72033 3.53251 6.72033 3.18129C6.72033 2.83008 6.43529 2.54504 6.08408 2.54504Z" fill="white"/>
<path d="M6.08408 4.77185H3.53908C3.18787 4.77185 2.90283 5.05689 2.90283 5.4081C2.90283 5.75931 3.18787 6.04435 3.53908 6.04435H6.08408C6.43529 6.04435 6.72033 5.75931 6.72033 5.4081C6.72033 5.05689 6.43529 4.77185 6.08408 4.77185Z" fill="white"/>
<path d="M6.08408 6.99878H3.53908C3.18787 6.99878 2.90283 7.28382 2.90283 7.63503C2.90283 7.98624 3.18787 8.27128 3.53908 8.27128H6.08408C6.43529 8.27128 6.72033 7.98624 6.72033 7.63503C6.72033 7.28382 6.43529 6.99878 6.08408 6.99878Z" fill="white"/>
<path d="M6.08408 9.22559H3.53908C3.18787 9.22559 2.90283 9.51062 2.90283 9.86184C2.90283 10.213 3.18787 10.4981 3.53908 10.4981H6.08408C6.43529 10.4981 6.72033 10.213 6.72033 9.86184C6.72033 9.51062 6.43529 9.22559 6.08408 9.22559Z" fill="white"/>
<path d="M8.62917 2.54504C8.27796 2.54504 7.99292 2.83008 7.99292 3.18129C7.99292 3.53251 8.27796 3.81754 8.62917 3.81754H9.26542C9.61663 3.81754 9.90167 3.53251 9.90167 3.18129C9.90167 2.83008 9.61663 2.54504 9.26542 2.54504H8.62917Z" fill="white"/>
<path d="M9.26542 6.04435C9.61663 6.04435 9.90167 5.75931 9.90167 5.4081C9.90167 5.05689 9.61663 4.77185 9.26542 4.77185H8.62917C8.27796 4.77185 7.99292 5.05689 7.99292 5.4081C7.99292 5.75931 8.27796 6.04435 8.62917 6.04435H9.26542Z" fill="white"/>
<path d="M13.6463 7.87209C13.1891 7.62076 12.6637 7.56702 12.1677 7.71909C11.9163 7.79598 11.688 7.92103 11.4917 8.08428C11.2953 7.9204 11.0673 7.79567 10.8169 7.71909C10.3203 7.56671 9.79478 7.62138 9.33639 7.87303C8.40174 8.3906 8.04152 9.59693 8.53408 10.5644C8.91201 11.3008 10.7167 12.893 11.0746 13.2047C11.0822 13.2114 11.0907 13.2159 11.0985 13.222C11.1122 13.2328 11.1262 13.2426 11.1404 13.2523C11.1623 13.2669 11.185 13.2799 11.2079 13.2916C11.2221 13.299 11.2361 13.306 11.2512 13.3121C11.2779 13.3228 11.3049 13.331 11.3326 13.3385C11.345 13.3416 11.3571 13.3461 11.3699 13.3483C11.4099 13.3565 11.451 13.3613 11.492 13.3613H11.4923H11.4926C11.5336 13.3613 11.5746 13.3565 11.6151 13.3486C11.6277 13.3461 11.6395 13.3419 11.6523 13.3388C11.6799 13.3318 11.7069 13.3234 11.7337 13.3124C11.7484 13.3063 11.7627 13.299 11.777 13.292C11.8001 13.2802 11.8225 13.2675 11.8444 13.2526C11.8587 13.2429 11.8727 13.2332 11.8864 13.2223C11.8944 13.2162 11.903 13.2114 11.9103 13.205C12.2682 12.8936 14.0732 11.3014 14.4519 10.5628C14.9433 9.59693 14.5828 8.3906 13.6463 7.87209ZM13.3187 9.9834C13.1682 10.2768 12.3228 11.1217 11.4923 11.8738C10.6614 11.1217 9.81668 10.2768 9.66694 9.98511C9.48302 9.62334 9.61117 9.17535 9.95089 8.98709C10.104 8.90305 10.2796 8.88472 10.4447 8.93551C10.6205 8.98926 10.7662 9.11368 10.8557 9.28704C10.8636 9.30645 10.8691 9.32944 10.8754 9.35352C10.8779 9.36346 10.8827 9.372 10.8855 9.38195C10.8922 9.40447 10.9003 9.42637 10.9095 9.44812C10.9171 9.46583 10.925 9.48276 10.934 9.49953C10.9441 9.51864 10.9556 9.53712 10.9677 9.55499C10.9789 9.57114 10.9902 9.58714 11.0027 9.60205C11.0163 9.61852 11.0306 9.63421 11.046 9.64912C11.0597 9.66279 11.074 9.67584 11.0889 9.68827C11.1052 9.70162 11.1223 9.71405 11.1401 9.72617C11.1572 9.73751 11.1745 9.74807 11.1926 9.75786C11.2097 9.76718 11.2273 9.77541 11.2454 9.78333C11.2673 9.79265 11.2893 9.80057 11.3122 9.80725C11.3214 9.81005 11.3296 9.81455 11.3393 9.81704C11.3472 9.81906 11.3551 9.81906 11.3632 9.82061C11.3866 9.82574 11.4103 9.82884 11.4343 9.83102C11.4538 9.83304 11.4729 9.83428 11.492 9.83428C11.5123 9.83428 11.533 9.83273 11.5536 9.83071C11.5766 9.82853 11.5991 9.82527 11.6214 9.82092C11.6301 9.81906 11.6383 9.81937 11.6468 9.81704C11.6568 9.81455 11.6656 9.80974 11.6753 9.80694C11.6972 9.80026 11.7184 9.79296 11.7394 9.78364C11.7585 9.77572 11.7767 9.76718 11.7946 9.75723C11.812 9.74776 11.8286 9.73751 11.845 9.72679C11.8632 9.71467 11.8808 9.70193 11.8975 9.68795C11.9121 9.67584 11.9258 9.66279 11.9395 9.64943C11.9552 9.63421 11.9698 9.61821 11.9834 9.60143C11.9959 9.58637 12.0071 9.57083 12.0178 9.55499C12.0302 9.53681 12.0414 9.51833 12.0518 9.49922C12.0608 9.48245 12.069 9.46552 12.0763 9.44781C12.0857 9.42606 12.0933 9.40416 12.1003 9.38164C12.103 9.372 12.1079 9.36315 12.1103 9.35321C12.1167 9.32913 12.1218 9.30614 12.131 9.28548C12.2192 9.11306 12.3649 8.98864 12.5408 8.93489C12.7065 8.88332 12.8819 8.90243 13.0326 8.98553C13.3734 9.17566 13.5015 9.62365 13.3187 9.9834Z" fill="white"/>
</g>
<defs>
<clipPath id="clip0">
<rect width="15.27" height="15.27" fill="white"/>
</clipPath>
</defs>
</svg>
